<?xml version="1.0" encoding="utf-8"?>
<!-- Generator: Adobe Illustrator 21.0.0, SVG Export Plug-In . SVG Version: 6.00 Build 0)  -->
<svg version="1.1" id="Layer_1" xmlns="http://www.w3.org/2000/svg" xmlns:xlink="http://www.w3.org/1999/xlink" x="0px" y="0px"
	 viewBox="0 0 50 50" style="enable-background:new 0 0 50 50;" xml:space="preserve">
<title>running-index</title>
<path d="M27.9,11.7c-1.2-0.7-2.7-0.3-3.4,0.9s-0.3,2.7,0.9,3.4c1.2,0.7,2.7,0.3,3.4-0.9c0,0,0,0,0,0C29.5,13.9,29.1,12.4,27.9,11.7z
	"/>
<path d="M26.5,17.5l3.7,2.3l3.7-2.3c0.5-0.3,1.1-0.1,1.4,0.4c0.3,0.5,0.1,1.1-0.4,1.4l-4.2,2.5c-0.3,0.2-0.7,0.2-1,0l-3.3-1.9
	l-3.3,6l3.3,3.3c0.2,0.2,0.3,0.4,0.4,0.7l1.5,5.5c0.3,0.7-0.1,1.6-0.8,1.9s-1.6-0.1-1.9-0.8c0-0.1-0.1-0.2-0.1-0.3l-1.4-5.2
	l-3.5-3.4l-1.3-0.2h-0.2H19l-2.7,2.6c-0.3,0.3-0.6,0.4-1,0.4H9.5c-0.8,0-1.4-0.7-1.4-1.4c0-0.8,0.6-1.4,1.4-1.4l0,0h5.1l3.4-3.4
	l3-5.8h-2.3l-3,3.1c-0.4,0.4-1,0.4-1.4,0c-0.4-0.4-0.4-1,0-1.4l3.4-3.5c0.2-0.2,0.4-0.3,0.7-0.3h4.9c0.4,0,0.7,0.1,1,0.3L26.5,17.5z
	"/>
<path d="M48,15.3c-1.1,0-2.1,0.9-2.1,2c0,1.1,0.9,2.1,2,2.1c1.1,0,2.1-0.9,2.1-2c0,0,0,0,0,0C50,16.2,49.1,15.3,48,15.3z"/>
<path d="M34.7,27.1l-6.8,2c0,0,0.3,1,0.5,1.7l6.8-2.1C34.8,28.4,34.6,27.7,34.7,27.1z"/>
<path d="M23,32.7c0,0-0.3-1.7-0.3-1.8L15,33.5c0.4,0.5,0.6,1.1,0.6,1.7L23,32.7z"/>
<path d="M45.9,18.1l-8.1,7.3c0.4,0.2,0.7,0.4,0.9,0.7c0.1,0.2,0.2,0.4,0.3,0.6l8.1-7.3C46.5,19.2,46,18.7,45.9,18.1z"/>
<path d="M4.2,37.2l7.4-1c-0.3-0.4-0.4-1-0.3-1.5v-0.3l-7.4,1c0.3,0.4,0.4,1,0.3,1.5L4.2,37.2z"/>
<path d="M34.8,27.4c0,1.1,0.9,2,2,2s2-0.9,2-2s-0.9-2-2-2C35.7,25.3,34.8,26.3,34.8,27.4L34.8,27.4z"/>
<path d="M11.3,35c0,1.1,0.9,2,2,2s2-0.9,2-2s-0.9-2-2-2c0,0,0,0,0,0C12.2,33,11.3,33.9,11.3,35z"/>
<path d="M2,34.5c-1.1,0-2,0.9-2,2s0.9,2,2,2s2-0.9,2-2l0,0C4.1,35.4,3.2,34.5,2,34.5z"/>
<path d="M27.9,11.7c-1.2-0.7-2.7-0.3-3.4,0.9s-0.3,2.7,0.9,3.4c1.2,0.7,2.7,0.3,3.4-0.9c0,0,0,0,0,0C29.5,13.9,29.1,12.4,27.9,11.7z
	"/>
<path d="M26.5,17.5l3.7,2.3l3.7-2.3c0.5-0.3,1.1-0.1,1.4,0.4c0.3,0.5,0.1,1.1-0.4,1.4l-4.2,2.5c-0.3,0.2-0.7,0.2-1,0l-3.3-1.9
	l-3.3,6l3.3,3.3c0.2,0.2,0.3,0.4,0.4,0.7l1.5,5.5c0.3,0.7-0.1,1.6-0.8,1.9s-1.6-0.1-1.9-0.8c0-0.1-0.1-0.2-0.1-0.3l-1.4-5.2
	l-3.5-3.4l-1.3-0.2h-0.2H19l-2.7,2.6c-0.3,0.3-0.6,0.4-1,0.4H9.5c-0.8,0-1.4-0.7-1.4-1.4c0-0.8,0.6-1.4,1.4-1.4l0,0h5.1l3.4-3.4
	l3-5.8h-2.3l-3,3.1c-0.4,0.4-1,0.4-1.4,0c-0.4-0.4-0.4-1,0-1.4l3.4-3.5c0.2-0.2,0.4-0.3,0.7-0.3h4.9c0.4,0,0.7,0.1,1,0.3L26.5,17.5z
	"/>
<path d="M48,15.3c-1.1,0-2.1,0.9-2.1,2c0,1.1,0.9,2.1,2,2.1c1.1,0,2.1-0.9,2.1-2c0,0,0,0,0,0C50,16.2,49.1,15.3,48,15.3z"/>
<path d="M34.7,27.1l-6.8,2c0,0,0.3,1,0.5,1.7l6.8-2.1C34.8,28.4,34.6,27.7,34.7,27.1z"/>
<path d="M23,32.7c0,0-0.3-1.7-0.3-1.8L15,33.5c0.4,0.5,0.6,1.1,0.6,1.7L23,32.7z"/>
<path d="M45.9,18.1l-8.1,7.3c0.4,0.2,0.7,0.4,0.9,0.7c0.1,0.2,0.2,0.4,0.3,0.6l8.1-7.3C46.5,19.2,46,18.7,45.9,18.1z"/>
<path d="M4.2,37.2l7.4-1c-0.3-0.4-0.4-1-0.3-1.5v-0.3l-7.4,1c0.3,0.4,0.4,1,0.3,1.5L4.2,37.2z"/>
<path d="M34.8,27.4c0,1.1,0.9,2,2,2s2-0.9,2-2s-0.9-2-2-2C35.7,25.3,34.8,26.3,34.8,27.4L34.8,27.4z"/>
<path d="M11.3,35c0,1.1,0.9,2,2,2s2-0.9,2-2s-0.9-2-2-2c0,0,0,0,0,0C12.2,33,11.3,33.9,11.3,35z"/>
<path d="M2,34.5c-1.1,0-2,0.9-2,2s0.9,2,2,2s2-0.9,2-2l0,0C4.1,35.4,3.2,34.5,2,34.5z"/>
</svg>
