<?xml version="1.0" encoding="utf-8"?>
<!-- Generator: Adobe Illustrator 21.0.0, SVG Export Plug-In . SVG Version: 6.00 Build 0)  -->
<svg version="1.1" id="Layer_1" xmlns="http://www.w3.org/2000/svg" xmlns:xlink="http://www.w3.org/1999/xlink" x="0px" y="0px"
	 viewBox="0 0 50 50" style="enable-background:new 0 0 50 50;" xml:space="preserve">
<title>training-load</title>
<path d="M49.7,40.9L41,28.4V10.3c0-1.6-0.6-2.5-2.2-2.5H10.9c-1.4-0.1-2.6,0.9-2.7,2.3c0,0.1,0,0.1,0,0.2v18L0,40.9
	c0,0.2,0,0.4,0,0.6c0.5,0.2,1.1,0.5,1.7,0.6h46.9c0.5-0.2,0.9-0.4,1.4-0.7C50.1,41.3,49.8,41.1,49.7,40.9z M38.8,27.4
	c0,0.1-0.1,0.2-0.2,0.2h-28c-0.1,0-0.2-0.1-0.2-0.2l-0.1-17c0-0.1,0.1-0.2,0.2-0.2l28.1,0.2c0.1,0,0.2,0.1,0.2,0.2L38.8,27.4z
	 M29.3,39h-8.2c-0.4,0-0.7,0-0.7-0.2l0.5-2.2c0.2-0.3,0.5-0.5,0.9-0.5h6.8c0.4,0,0.7,0.2,0.9,0.5l0.5,2C30.1,38.9,29.7,39,29.3,39z"
	/>
<path d="M15,20.7l1.9,2.3c0.1-0.4,0.3-0.8,0.7-1l-1.7-2.1C15.7,20.3,15.4,20.6,15,20.7z"/>
<path d="M19.6,23l4.5-4.5c-0.4-0.2-0.7-0.7-0.7-1.1L18.7,22C19.2,22.2,19.5,22.6,19.6,23z"/>
<path d="M29.1,20.1l4.9-4.8c-0.4-0.2-0.7-0.5-0.9-0.9l-5,4.9C28.5,19.4,28.9,19.7,29.1,20.1z"/>
<path d="M25.3,18.7l1.1,1.4c0.2-0.4,0.5-0.7,1-0.9l-1.1-1.4C26.1,18.3,25.7,18.6,25.3,18.7z"/>
<path d="M26.1,20.6c0,0.9,0.7,1.6,1.6,1.7c0.9,0,1.6-0.7,1.7-1.6c0-0.9-0.7-1.6-1.6-1.7c0,0,0,0,0,0C26.8,19,26.1,19.7,26.1,20.6z"
	/>
<path d="M34.5,15.6c0.9,0,1.6-0.7,1.6-1.6s-0.7-1.6-1.6-1.6c-0.9,0-1.6,0.7-1.6,1.6v0C32.9,14.8,33.6,15.6,34.5,15.6z"/>
<path d="M16.6,23.4c0,0.9,0.7,1.6,1.6,1.6c0,0,0,0,0,0c0.9,0.1,1.7-0.5,1.8-1.4c0.1-0.9-0.5-1.7-1.4-1.8c-0.1,0-0.3,0-0.4,0
	C17.3,21.8,16.6,22.5,16.6,23.4z"/>
<path d="M24.9,18.9c0.9,0,1.6-0.7,1.6-1.6c0-0.9-0.7-1.6-1.6-1.6c-0.9,0-1.6,0.7-1.6,1.6c0,0,0,0,0,0C23.3,18.2,24,18.9,24.9,18.9z"
	/>
<circle cx="14.7" cy="19.2" r="1.6"/>
</svg>
